<svg width="51" height="19" viewBox="0 0 51 19" fill="none" xmlns="http://www.w3.org/2000/svg">
<path d="M12.128 13.632H12.752C12.832 14.08 12.904 14.648 12.968 15.336C13.032 16.008 13.048 16.664 13.016 17.304C12.776 17.496 12.488 17.656 12.152 17.784C11.816 17.896 11.456 17.992 11.072 18.072C10.704 18.152 10.32 18.208 9.92 18.24C9.536 18.272 9.168 18.288 8.816 18.288C7.472 18.288 6.272 18.12 5.216 17.784C4.16 17.432 3.264 16.904 2.528 16.2C1.808 15.496 1.248 14.6 0.848 13.512C0.464 12.408 0.272 11.104 0.272 9.6C0.272 8.032 0.488 6.704 0.92 5.616C1.352 4.512 1.936 3.616 2.672 2.928C3.408 2.224 4.264 1.712 5.24 1.392C6.216 1.072 7.24 0.912 8.312 0.912C9.368 0.912 10.256 0.984 10.976 1.128C11.696 1.256 12.328 1.456 12.872 1.728C12.872 1.984 12.864 2.288 12.848 2.64C12.832 2.976 12.808 3.336 12.776 3.72C12.744 4.104 12.704 4.48 12.656 4.848C12.608 5.216 12.56 5.552 12.512 5.856H11.888L10.64 2.4C10.464 2.304 10.168 2.24 9.752 2.208C9.352 2.176 8.952 2.16 8.552 2.16C7.752 2.16 6.992 2.312 6.272 2.616C5.568 2.904 4.944 3.36 4.4 3.984C3.872 4.592 3.448 5.368 3.128 6.312C2.808 7.24 2.648 8.336 2.648 9.6C2.648 10.736 2.792 11.768 3.08 12.696C3.368 13.608 3.784 14.392 4.328 15.048C4.872 15.688 5.536 16.184 6.32 16.536C7.104 16.872 7.992 17.04 8.984 17.04C9.512 17.04 9.952 17 10.304 16.92C10.656 16.84 10.888 16.736 11 16.608L12.128 13.632ZM27.4053 15.048C26.9253 14.616 26.3973 14.112 25.8213 13.536C25.2613 12.944 24.7173 12.344 24.1893 11.736C23.6613 11.128 23.1733 10.544 22.7253 9.984C22.2773 9.424 21.9253 8.96 21.6693 8.592C20.9813 9.264 20.4853 9.92 20.1813 10.56C19.8773 11.184 19.7253 11.92 19.7253 12.768C19.7253 13.376 19.8213 13.944 20.0133 14.472C20.2213 14.984 20.5013 15.432 20.8533 15.816C21.2053 16.2 21.6293 16.504 22.1253 16.728C22.6213 16.936 23.1573 17.04 23.7333 17.04C24.4533 17.04 25.1253 16.88 25.7493 16.56C26.3733 16.224 26.9253 15.72 27.4053 15.048ZM21.2133 4.008C21.2133 4.296 21.2693 4.608 21.3813 4.944C21.4933 5.264 21.6373 5.584 21.8133 5.904C22.0053 6.224 22.2053 6.536 22.4133 6.84C22.6373 7.144 22.8533 7.416 23.0613 7.656C23.6373 7.176 24.1013 6.624 24.4533 6C24.8213 5.36 24.9653 4.608 24.8853 3.744C24.8533 3.232 24.6933 2.8 24.4053 2.448C24.1173 2.096 23.6613 1.92 23.0373 1.92C22.6853 1.92 22.3893 1.984 22.1493 2.112C21.9253 2.224 21.7413 2.384 21.5973 2.592C21.4533 2.784 21.3493 3.008 21.2853 3.264C21.2373 3.504 21.2133 3.752 21.2133 4.008ZM31.1733 18C30.8373 17.776 30.4133 17.504 29.9013 17.184C29.3893 16.848 28.8293 16.384 28.2213 15.792C27.9973 16.096 27.7173 16.4 27.3813 16.704C27.0453 16.992 26.6453 17.256 26.1813 17.496C25.7333 17.736 25.2293 17.928 24.6693 18.072C24.1093 18.216 23.5013 18.288 22.8453 18.288C21.9973 18.288 21.2293 18.16 20.5413 17.904C19.8533 17.648 19.2693 17.304 18.7893 16.872C18.3093 16.44 17.9333 15.944 17.6613 15.384C17.4053 14.824 17.2773 14.24 17.2773 13.632C17.2773 12.848 17.4213 12.144 17.7093 11.52C17.9973 10.88 18.3413 10.328 18.7413 9.864C19.1413 9.384 19.5573 8.984 19.9893 8.664C20.4213 8.328 20.7813 8.056 21.0693 7.848C20.6053 7.336 20.2133 6.736 19.8933 6.048C19.5733 5.36 19.4133 4.72 19.4133 4.128C19.4133 3.728 19.4933 3.336 19.6533 2.952C19.8133 2.552 20.0453 2.208 20.3493 1.92C20.6693 1.616 21.0533 1.376 21.5013 1.2C21.9653 1.008 22.4853 0.912 23.0613 0.912C24.1173 0.912 24.9653 1.144 25.6053 1.608C26.2613 2.056 26.5893 2.712 26.5893 3.576C26.5893 4.104 26.4933 4.6 26.3013 5.064C26.1253 5.512 25.8933 5.928 25.6053 6.312C25.3173 6.696 24.9893 7.048 24.6213 7.368C24.2693 7.688 23.9173 7.984 23.5653 8.256C24.2213 9.072 24.9813 9.912 25.8453 10.776C26.7093 11.64 27.6213 12.504 28.5813 13.368C28.7093 13.192 28.8693 12.896 29.0613 12.48C29.2533 12.064 29.4293 11.576 29.5893 11.016C29.7653 10.456 29.9013 9.848 29.9973 9.192C30.1093 8.52 30.1413 7.856 30.0933 7.2C29.6133 7.104 29.1413 6.912 28.6773 6.624V6H33.5493V6.624C33.1173 6.896 32.5893 7.088 31.9653 7.2C31.8213 8.144 31.6373 9 31.4133 9.768C31.1893 10.536 30.9573 11.216 30.7173 11.808C30.4773 12.384 30.2453 12.88 30.0213 13.296C29.8133 13.696 29.6453 13.992 29.5173 14.184C30.1253 14.68 30.7173 15.144 31.2933 15.576C31.8853 15.992 32.5413 16.408 33.2613 16.824L34.5813 17.4V18H31.1733ZM40.2727 16.728C40.6407 16.808 40.9927 16.896 41.3287 16.992C41.6647 17.072 41.9927 17.176 42.3127 17.304V18H36.0007V17.304C36.3527 17.144 36.6887 17.024 37.0087 16.944C37.3287 16.864 37.6487 16.792 37.9687 16.728V2.496C37.5527 2.416 37.1847 2.328 36.8647 2.232C36.5447 2.12 36.2567 2.008 36.0007 1.896V1.2H38.1127C38.7527 1.2 39.4487 1.168 40.2007 1.104C40.9687 1.04 41.7127 1.008 42.4327 1.008C43.2167 1.008 43.9447 1.096 44.6167 1.272C45.3047 1.448 45.8967 1.728 46.3927 2.112C46.8887 2.496 47.2727 2.984 47.5447 3.576C47.8327 4.168 47.9767 4.88 47.9767 5.712C47.9767 6.88 47.6647 7.848 47.0407 8.616C46.4327 9.384 45.6007 9.936 44.5447 10.272C45.2327 11.36 45.9527 12.44 46.7047 13.512C47.4567 14.584 48.2407 15.648 49.0567 16.704L50.3527 17.4V18H47.4487L46.5367 17.328C46.0887 16.768 45.6807 16.224 45.3127 15.696C44.9447 15.152 44.6007 14.608 44.2807 14.064C43.9607 13.504 43.6567 12.944 43.3687 12.384C43.0967 11.808 42.8167 11.2 42.5287 10.56H40.2727V16.728ZM41.9047 2.256C41.5207 2.256 41.2007 2.264 40.9447 2.28C40.7047 2.296 40.4807 2.328 40.2727 2.376V9.552H42.0007C43.1047 9.552 43.9767 9.2 44.6167 8.496C45.2727 7.792 45.6007 6.864 45.6007 5.712C45.6007 4.528 45.2567 3.656 44.5687 3.096C43.8807 2.536 42.9927 2.256 41.9047 2.256Z" fill="white"/>
</svg>
